<svg id="Layer_1" data-name="Layer 1" xmlns="http://www.w3.org/2000/svg" viewBox="0 0 288.82 224.46"><defs><style>.cls-1{fill:#fff;}</style></defs><title>CCLogo</title><path class="cls-1" d="M18.49,213.72c0,4.51-.14,9.67-5.73,10.37-3.66.46-9.43,0.76-11.46-2.94-1.38-2.5-1-5.87-1-8.64V199.27c0-5.37-2.25-18.11,5.07-19.57,3.49-.69,9.61-0.87,11.82,2.36,0.74,1.07,2.45,10.08.72,10.08H13.45c-1.48,0-.93-0.9-0.93-2.3s0.37-3.52-.87-4.43c-1-.71-3.62-0.8-4.57,0-1.23,1-.77,4.07-0.77,5.49V201c0,5.11-.72,10.79,0,15.86,0.29,1.89,2.21,2.14,3.81,1.92,2.19,0,2.36-1.84,2.36-3.57s0.11-1.47,1.89-1.47h4.08Z"/><path class="cls-1" d="M29.31,224.17c-9.36,0-7.22-11.73-7.22-18.06V192.53c0-2.64-.33-5.67.32-8.25,1.32-5.31,6.75-4.77,11.07-4.77,5.21,0,8.64,2,8.64,7.67v21.61c0,3.36.52,7.36-.32,10.66C40.35,225.16,33.87,224.17,29.31,224.17Zm1.43-5.42c1.38,0,4.06.5,5-.85a5.12,5.12,0,0,0,.43-2.9V191.68c0-2.37.82-6.76-2.68-6.76-1.34-.14-4-0.34-4.93.85a4.76,4.76,0,0,0-.48,2.9V212C28.07,214.36,27.24,218.76,30.74,218.76Z"/><path class="cls-1" d="M57.61,205.76q2.22-10.52,4.44-21,0.45-2.13.9-4.25c0.24-1.13.2-1,1.44-1h5.29a4.25,4.25,0,0,1,.06,1.31v43.11c0,0.53-5.15.24-6,.24q0.31-14.62.62-29.24l-2.53,12-1.58,7.46c-0.44,2.07-.4,1.72-2.67,1.72-2,0-2.21.43-2.6-1.41l-1.53-7.22-2.65-12.51q0.31,14.62.62,29.24c-1.42,0-6,1-6-.76V180.1c0-1.38,5.26-.6,6.54-0.6,0.8,0,4,18.86,4.4,20.58Z"/><path class="cls-1" d="M85.09,205.76l4.44-21q0.45-2.13.9-4.25c0.24-1.13.2-1,1.44-1h5.29a4.23,4.23,0,0,1,.06,1.31v43.11c0,0.53-5.16.24-6,.24q0.31-14.62.62-29.24l-2.53,12-1.58,7.46c-0.44,2.07-.4,1.72-2.67,1.72-2,0-2.21.43-2.6-1.41q-0.76-3.61-1.53-7.22l-2.65-12.51q0.31,14.62.63,29.24c-1.42,0-6,1-6-.76V180.1c0-1.38,5.26-.6,6.54-0.6,0.8,0,4,18.86,4.4,20.58Z"/><path class="cls-1" d="M106.41,224.17c-1.6,0-6,1.07-6-.9V189c0-3-.06-6.62,2.85-8.43s9.65-1.72,12.58-.28c3.24,1.6,3.35,5.29,3.35,8.45v33.07c0,2.57.32,2.38-2.43,2.38-0.36,0-3.54.12-3.54-.1V209c0-1.07.24-1.16-.86-1.16h-5.74C106.16,207.81,106.41,222.38,106.41,224.17Zm6.84-21.78v-12c0-1.29.35-3.54-.48-4.64-1.3-1.72-5.93-1.2-6.31,1.07-0.67,4-.05,8.61-0.05,12.68,0,0.83-.51,2.88.51,2.88h6.33Z"/><path class="cls-1" d="M134.81,201.09V180.4c0-2.29,6-.24,6-0.86v44.54a28.27,28.27,0,0,1-4.08.09c-1,0-1.89.45-1.89-.66v-5.42a16.1,16.1,0,0,0-.87-5.6q-2.77-8.78-5.53-17.56v29.18c0-.36-6,0.94-6-0.4V180.43c0-1.92,3-.92,4.59-0.92,0.75,0,1.3-.29,1.51.44l1,3.47Z"/><path class="cls-1" d="M144,224.17V182.06c0-2.44-.5-2.55,2.06-2.55,3.7,0,8.27-.66,11.85.49,7,2.24,4.87,14.44,4.87,20.07v12.36a47.21,47.21,0,0,1-.1,6.71c-0.7,4.7-5.11,5-9,5H144Zm6-5.42c2.64,0,6.84.93,6.84-2.69V192.31c0-2.07.76-6.85-2-7.34-0.75-.13-4.42-0.49-4.79-0.05a5.92,5.92,0,0,0,0,2v31.87h0Z"/><path class="cls-1" d="M173.73,224.17c-9.36,0-7.21-11.73-7.21-18.06V192.53c0-2.64-.33-5.67.32-8.25,1.32-5.31,6.75-4.77,11.08-4.77,5.2,0,8.63,2,8.63,7.67v21.61c0,3.36.52,7.36-.32,10.66C184.77,225.16,178.29,224.17,173.73,224.17Zm1.43-5.42c1.39,0,4.06.5,5-.85a5.11,5.11,0,0,0,.44-2.9V191.68c0-2.37.82-6.76-2.67-6.76-1.34-.14-4-0.34-4.93.85a4.75,4.75,0,0,0-.48,2.9V212C172.49,214.36,171.66,218.76,175.16,218.76Z"/><path class="cls-1" d="M202,191.51a29.77,29.77,0,0,0-.05-4.63c-0.36-2.18-4.31-2.85-5.58-1.09-0.85,1.2-.47,3.58-0.47,4.95,0,1.54-.47,4.09.22,5.56,0.6,1.28,3.29,2.25,4.47,2.89a43.58,43.58,0,0,1,5.72,3.31c2.86,2.17,1.65,9.17,1.65,12.33,0,4.65-1,9-6.48,9.33-4.22.24-9.55,0.45-11.07-4.44-0.11-.36-0.87-6-0.43-6h5.65c0.38,0,.27,3.56.75,4.19,1.29,1.69,5.22,1.16,5.56-1.07,0.39-2.6,0-5.45,0-8.07,0-2.78-4.06-4.1-6.16-5.28-3.33-1.87-5.91-3.11-5.91-7.37v-8.79c0-3.86,1.57-7.22,5.73-7.74,3-.37,7.48-0.62,9.92,1.27,2.86,2.22,2.4,6.3,2.4,9.52,0,1.55-.36,1.13-1.89,1.13H202Z"/><path class="cls-1" d="M18.16,104.9c-3.85,0-8.32-.56-11.88,1.15C2.07,108.05,1,112.69,1,117v43.62C1,163.46.91,166.35,2,169c2,4.79,6.81,5.64,11.5,5.64,4.33,0,9.45.56,12.81-2.76s3-8.74,3-13.23c0-.69-8-0.33-9.16-0.33-0.39,0-.14,3.25-0.17,3.79,0,3.08-1.82,4.08-4.61,4.08-3.77,0-5.11-1.56-5.11-5.19V125.19c0-2.49-1.07-9.41,1.33-11.18,2.57-1.9,8-.76,8.35,2.72a78.15,78.15,0,0,1,0,7.84c0,0.12,6.9.06,7.54,0.06,0.35,0,1.78.24,1.78-.2v-4.57c0-3.32.19-6.8-1.33-9.86C26.14,106.22,22.14,104.9,18.16,104.9Z"/><path class="cls-1" d="M52.42,104.9c-3.59,0-7.64-.46-11.14.52-5.26,1.46-7,6.45-7,11.47V132.7c0,3.06,0,42,0,42,0.88,0,9.28,0,9.28,0V149.38c0-.6,2.12-0.26,2.6-0.26H52.6c0.92,0,1.67-.41,1.67.58v23.13a11.56,11.56,0,0,0,0,1.84h5.46c1.71,0,3.83.92,3.83-1V119.37a32.69,32.69,0,0,0-.33-6.28C62.18,107.55,57.86,104.9,52.42,104.9Zm1.84,35.76H44.84c-0.7,0-1.26.31-1.26-.44v-3.51c0-6.37-.46-12.91,0-19.27,0-4.25,5.85-5.37,9-3.54,2.3,1.32,1.65,5.26,1.65,7.5v19.27Z"/><path class="cls-1" d="M87.43,145.91L79,105.86c-0.43-2-4.45-1-6.2-1s-4.3-1-4.3,1v68c0,1.18.58,0.73,1.78,0.73h7.54q-0.49-22.83-1-45.67,2,9.51,4,19l2.37,11.2,0.55,2.63c0.11,0.52,2.87.2,3.35,0.2S91,162.21,91,162c0.15-.72.3-1.43,0.45-2.14l2.39-11.28L98,129q-0.49,22.83-1,45.67h4.38c0.67,0,4.5.5,4.94,0s0-3,0-3.59V105.2c0-.49-10.24-0.56-10.31-0.26L93.7,116.2Z"/><path class="cls-1" d="M128.44,104.9c-1.77,0-17-.16-17,0.16v69.59s8.3,0,9.16,0c0.35,0,.17-18.87.17-20.65v-4c0-1.07,1.07-.59,2-0.59,4.11,0,9,.64,12.63-1.71s4.3-7,4.3-11.1V124.36a91.54,91.54,0,0,0-.12-9.85C138.91,108.27,134.6,104.9,128.44,104.9Zm1.94,32c0,4.91-4.77,4.08-8.24,4.08-0.87,0-1.38.34-1.38-.54V115.09a5.6,5.6,0,0,1,0-1.73c0.49-.48,3.76,0,4.49,0,3.63,0,5.13,1.5,5.13,5.08v18.44Z"/><path class="cls-1" d="M208.14,123.66c0-3.85.46-8.14-.65-11.87-1.53-5.15-6.07-6.88-11.06-6.88-4.16,0-9.09-.62-12.62,2s-3.84,7.4-3.84,11.54v12c0,2.25,0,4.71,1.35,6.64s4,3.11,6.15,4.3c3.36,1.88,7,3.56,10.12,5.9,2.42,1.84,1.23,8.79,1.23,11.42,0,1.39.1,2.81,0,4.2-0.31,3-2.62,3.3-5.14,3.3s-4.35-1.35-4.35-4.08c-0.06-.78.48-3.79-0.37-3.79h-5.67c-1.19,0-3.28-.65-3.28.75,0,4.71-.12,10.35,4,13.52,3.52,2.69,8.44,2.05,12.6,2.05,5.17,0,9.73-2,11.07-7.4,0.91-3.63.48-7.79,0.48-11.51s0.54-8.14-.34-11.78c-0.8-3.27-4.78-4.9-7.47-6.35l-7.42-4c-2.88-1.55-3.61-3-3.61-6v-8.93c0-3,.75-5.31,4.21-5.31,3.74,0,5.31,1.34,5.31,5.13v4.6c0,0.89.51,0.57,1.36,0.57h8Z"/><path class="cls-1" d="M170.41,0c-5.16,0-4.67,5.34-4.67,8.9V161.64c0,2.47-1.08,4.57-3.79,4.57-1.63.16-4.17,0.31-5.71-.34-2.47-1-2.16-4.07-2.16-6.3v-54.4c0-.6-7-0.27-8-0.27-2,0-1.36.7-1.36,2.55v48.25c0,6-.91,14.16,5.13,17.58,3.59,2,8.38,1.38,12.36,1.38,4.42,0,8.84-.7,11.14-5,2-3.66,1.69-8,1.69-12V7.84C175.07,4.49,175.1,0,170.41,0Z"/><path class="cls-1" d="M276.56,27.27c-14.7-5.48-29-11.06-45.23-9.94a73,73,0,0,1-34.95-6c-5.09-2.25-10.42-4-16.54-6.31,0.1,29.18.16,57.36,0.39,85.55,0,1.33,1.26,3.54,2.34,3.84,6.88,1.86,13.82,4.05,20.87,4.7,15.1,1.39,30.58-.61,45,6,5.73,2.62,11.72,4.69,17.66,6.82,7.39,2.65,9.45,1.26,9.33-6.43-0.22-13.34,1.15-26.22,8.54-37.89,4.18-6.59,4.53-14.07,4.79-21.75C289.12,36.35,286,30.78,276.56,27.27Z"/></svg>