<?xml version="1.0" encoding="UTF-8" standalone="no"?>
<svg width="374px" height="60px" viewBox="0 0 374 60" version="1.1" xmlns="http://www.w3.org/2000/svg" xmlns:xlink="http://www.w3.org/1999/xlink">
    <!-- Generator: sketchtool 41 (35326) - http://www.bohemiancoding.com/sketch -->
    <title>DEB66E6E-F021-4D61-8B7C-24359A3BA6E1</title>
    <desc>Created with sketchtool.</desc>
    <defs></defs>
    <g id="assets" stroke="none" stroke-width="1" fill="none" fill-rule="evenodd">
        <g id="@2x-Graphics" transform="translate(-2993.000000, -362.000000)">
            <g id="graphics-headerlogo-handshake@2x" transform="translate(2993.000000, 362.000000)">
                <path d="M207.233886,36.6308561 C207.233886,43.3402368 207.203472,50.0498861 207.26107,56.7588641 C207.271836,58.0080981 206.377998,58.9679425 205.255251,59.0786782 C205.043836,59.0996174 204.830806,59.1165297 204.618583,59.1162613 C199.552292,59.1115634 194.48479,59.1700856 189.420384,59.0747857 C179.78061,59.3604169 177.106095,53.6021559 176.124247,51.0955003 C174.319615,46.3662097 172.730974,33.6592444 184.644233,30.0742236 C186.678986,29.4651096 188.765145,29.2766575 190.882794,29.2967912 C193.373078,29.3205491 195.8639,29.3043079 198.354453,29.3012207 C199.271034,29.3001469 199.333476,29.2331685 199.33361,28.3186922 C199.334014,24.4119336 199.367792,20.5046381 199.315174,16.5986848 C199.297006,15.2537483 200.103102,14.2671931 201.433496,14.1708194 C202.786499,14.072835 204.155246,13.9956555 205.505692,14.2410192 C206.589951,14.438196 207.233348,15.2317354 207.233482,16.3114429 C207.23429,23.0845806 207.233886,29.8577184 207.233886,36.6308561 L207.233886,36.6308561 Z M199.603027,44.2106873 C199.603027,41.5374582 199.603027,38.8640949 199.602892,36.1908659 C199.602892,35.056663 199.583513,35.0365292 198.473147,35.036395 C195.984344,35.0361265 193.226393,35.0397506 190.737724,35.0349185 C189.496283,35.0325024 188.33922,35.095454 186.869945,35.5217533 C179.261022,37.2880227 178.075429,53.7927557 189.912519,53.351289 C192.782839,53.4083347 195.924324,53.3706175 198.795585,53.3891405 C199.396052,53.3928988 199.616753,53.1515619 199.612178,52.5486223 C199.591184,49.7694896 199.603027,46.9899542 199.603027,44.2106873 L199.603027,44.2106873 Z" id="Fill-1" fill="#607577"></path>
                <path d="M67.5945719,36.5818639 C67.5945719,29.9157036 67.629561,23.2491407 67.5659077,16.5836516 C67.5527195,15.1989844 68.490159,14.2377978 69.6164051,14.1744435 C70.9941692,14.0968613 72.3739519,14.0314937 73.7517161,14.2326972 C74.8467411,14.3925595 75.4835432,15.4211272 75.4882533,16.4777479 C75.5053441,20.4263848 75.4948474,24.3752901 75.4952511,28.3240612 C75.4953857,29.2310209 75.5607884,29.3000127 76.4797913,29.3010865 C79.0552601,29.3039052 81.6307289,29.29961 84.2061977,29.3026972 C87.744675,29.3069924 91.0594909,30.115565 94.0351815,32.0843802 C94.5423893,32.4199432 95.0292764,32.8169813 95.435554,33.2666357 C96.1820335,34.0930603 96.8500567,34.9691481 97.3832372,35.9748975 C98.177894,37.4740588 98.3626635,39.0475808 98.3622598,40.684994 C98.3609141,46.0774913 98.3389786,51.4699887 98.3780049,56.8620833 C98.3876942,58.2003085 97.6630156,58.9871367 96.2388236,59.0813627 C95.0738203,59.158408 93.8950904,59.1624348 92.7306254,59.0821681 C91.2155963,58.9777409 90.5892909,58.1765507 90.5966925,56.8659758 C90.6269715,51.4313318 90.5701815,45.9960166 90.6256258,40.561641 C90.6537516,37.804387 88.9020076,36.1785172 86.3920761,35.5975905 C85.4951433,35.3900783 84.5922893,35.2916913 83.6751705,35.2915571 C81.2911998,35.2914228 78.9072292,35.2908859 76.5233931,35.2918255 C75.5724963,35.2923624 75.4953857,35.367797 75.4953857,36.2947562 C75.4948474,43.1732607 75.4932325,49.7967373 75.496866,56.6752418 C75.4975389,57.9354822 74.7764937,58.9751906 73.5420505,59.059484 C72.1240488,59.1563946 70.692859,59.2498154 69.2810478,58.9942506 C68.1932897,58.7973422 67.5949756,58.0133328 67.5949756,56.8989952 C67.5941682,50.1266629 67.5945719,43.3541963 67.5945719,36.5818639" id="Fill-2" fill="#607577"></path>
                <path d="M311.594202,36.5952864 C311.594202,29.9060394 311.612908,23.2166582 311.579938,16.5275455 C311.572536,15.0077135 312.14878,14.2685354 313.884779,14.1462562 C314.901617,14.07458 315.929759,14.0838415 316.948615,14.1355182 C318.505766,14.2143084 319.38507,14.9265073 319.372554,16.6346572 C319.321147,23.6632255 319.349004,30.6925991 319.356809,37.72157 C319.357213,38.103575 319.195994,38.5901413 319.656639,38.8106733 C320.12509,39.0349636 320.438511,38.6529587 320.771716,38.391488 C323.439771,36.297038 326.116708,34.2138629 328.779515,32.1128359 C329.673622,31.4073483 330.532336,30.6599824 331.4761,30.0146276 C332.211679,29.51182 333.022754,29.3201464 333.881468,29.3090057 C335.541971,29.2875297 337.202744,29.3024287 338.863516,29.3029656 C338.969829,29.3029656 339.078699,29.2958517 339.181917,29.3151801 C339.766235,29.4252448 340.426184,29.4640358 340.574215,30.2054958 C340.714037,30.9050776 340.308432,31.3073505 339.748606,31.6924426 C338.776447,32.3612867 337.876419,33.133887 336.938576,33.8530656 C335.38304,35.0459249 333.815662,36.2232142 332.266451,37.4242612 C331.834335,37.7592873 331.42402,38.1308227 331.049368,38.5285319 C330.669332,38.9320129 330.689383,39.6608557 331.097276,40.2411112 C331.274913,40.4593614 331.400605,40.6405654 331.530064,40.8521043 C332.584044,42.5748848 333.601286,44.3207519 334.692139,46.0197745 C335.473608,47.237197 336.224125,48.4728742 336.99873,49.6935182 C337.910466,51.1303989 338.763528,52.6055338 339.702313,54.0204016 C340.256622,54.8556851 340.714575,55.7476115 341.310602,56.563298 C342.095435,57.6376365 341.651476,58.8774747 340.382179,59.0122368 C338.598541,59.2016285 336.782336,59.3192098 334.993853,58.8946555 C334.238626,58.7153306 333.764524,58.1609806 333.325679,57.6142813 C332.896121,57.0792597 332.606384,56.4367237 332.226752,55.8551259 C331.478926,54.709648 330.861772,53.4804137 330.140189,52.3168154 C328.857972,50.2490762 327.573602,48.1836189 326.337409,46.0875582 C326.030985,45.5681067 325.756993,45.0689232 325.403199,44.5283983 C324.904604,43.6941887 324.088954,43.6451965 323.485526,44.1147162 C322.270865,45.0599301 321.070469,46.024875 319.893085,47.0158597 C319.425307,47.4098106 319.346447,47.993556 319.348062,48.5880394 C319.35506,51.2848921 319.29504,53.9834897 319.371881,56.678329 C319.418713,58.3149369 318.43969,59.052907 317.015498,59.1039126 C315.931374,59.1428379 314.839578,59.172099 313.759895,59.0906243 C312.23881,58.9758617 311.575631,58.2756089 311.581552,56.8542983 C311.609813,50.1014285 311.594202,43.3482904 311.594202,36.5952864" id="Fill-3" fill="#607577"></path>
                <path d="M134.20364,44.2806186 C134.20364,48.4418682 134.178475,52.6033862 134.217367,56.7642331 C134.230959,58.2099728 133.554054,58.9839152 131.979677,59.0886109 C130.92018,59.1589449 129.8518,59.132771 128.788669,59.1047179 C127.425304,59.0686113 127.319395,58.325138 127.023737,56.9901342 C126.922538,56.5329631 126.477637,56.3936374 126.099889,56.7508106 C123.791684,58.9341177 120.503379,59.6877922 117.485836,59.8381244 C114.932033,59.9653699 112.254154,59.5967875 109.872202,58.5919777 C108.852403,58.1617859 105.852221,56.4530991 103.851515,53.0817648 C101.154123,47.9943614 101.36177,41.8502029 103.473364,37.6301627 C104.405286,35.6790652 105.72303,34.0251423 107.518107,32.7398018 C109.606823,31.2442646 111.907492,30.2943529 114.395758,29.7480564 C115.707715,29.4600091 117.041608,29.3135694 118.38223,29.3084688 C122.745778,29.2919591 127.10946,29.3010865 131.473008,29.3051132 C131.769608,29.3053817 132.074821,29.3071266 132.361328,29.3720916 C133.729403,29.682286 134.207274,30.2667025 134.205659,31.5421104 C134.20041,35.7883245 134.20364,40.0345387 134.20364,44.2806186 L134.20364,44.2806186 Z M126.840179,36.4053577 C126.839237,35.5633631 126.727271,35.4440369 125.88511,35.4416208 C123.925584,35.4358491 121.966059,35.4440369 120.006399,35.4383994 C118.379942,35.4335673 116.418802,35.5284645 114.883991,36.1205319 C107.032834,38.1918951 105.718724,50.8440966 113.744152,53.6136993 C116.531709,54.5650875 119.77251,54.3613336 122.09969,53.2632373 C124.586879,52.0897064 126.092622,50.9572484 126.578164,47.663362 C126.702779,45.8024639 126.842063,38.2960539 126.840179,36.4053577 L126.840179,36.4053577 Z" id="Fill-4" fill="#607577"></path>
                <path d="M361.771973,46.3762766 C358.621606,46.3762766 355.471239,46.375337 352.320872,46.3769477 C351.382087,46.3774846 351.234863,46.5172131 351.234863,47.4351792 C351.234863,51.6232738 353.578462,53.1675347 355.802156,53.6833622 C358.274406,54.2569064 360.779897,54.2369069 363.234788,53.4771923 C364.399118,53.1167976 365.466556,52.5106366 366.383271,51.744345 C371.091731,47.286055 374.815516,52.6227147 372.080577,55.3505734 C369.32626,57.6906555 366.142923,59.0947853 362.574974,59.5549092 C358.536287,60.075703 354.42022,60.0622805 350.626456,58.4129213 C343.352486,55.5418443 338.58468,44.0662609 345.527599,34.1667499 C347.891114,31.0826575 351.229615,29.4792033 354.73741,28.9220345 C357.598982,28.4674137 360.459881,28.514661 363.291309,29.1664586 C365.458212,29.6652394 367.474528,30.504818 369.273507,31.8463989 C371.116627,33.2208649 372.427508,34.9381421 373.203325,37.1239995 C373.903511,38.7928213 374.953454,46.3075533 371.984626,46.3075533 C371.653172,46.3698338 371.307183,46.3730552 370.967789,46.3735921 C367.902607,46.37829 364.83729,46.3762766 361.771973,46.3762766 L361.771973,46.3762766 Z M358.5414,41.3322279 C360.116449,41.3322279 361.691498,41.3326306 363.266413,41.3320937 C363.883702,41.3318252 364.500991,41.3355835 365.118145,41.326322 C365.639079,41.3184027 366.063793,40.9684776 366.039301,40.3752022 C366.012521,39.7259549 365.91657,34.3734567 358.392831,34.3734567 C351.562954,34.3734567 351.281561,39.7532026 351.24859,40.1752067 C351.173767,41.1374671 351.356518,41.3288722 352.347787,41.3308856 C354.412414,41.3351808 356.476907,41.3322279 358.5414,41.3322279 L358.5414,41.3322279 Z" id="Fill-5" fill="#607577"></path>
                <path d="M171.371243,48.5644158 C171.371243,51.324757 171.349846,54.0852324 171.380125,56.8451709 C171.395332,58.2346702 170.765931,58.9686136 169.202186,59.083913 C168.101509,59.164985 166.988855,59.1401534 165.884006,59.0978724 C164.476905,59.0440481 163.557498,58.264334 163.5758,56.6886644 C163.636627,51.4448885 163.509186,46.1978913 163.632052,40.9562631 C163.706875,37.7621061 161.305679,35.1912908 158.348829,34.6408333 C156.770146,34.3468801 153.986492,33.723941 149.145881,34.3566785 C148.263348,34.471978 147.602053,35.221223 147.601246,36.1089885 C147.59667,41.6613481 147.572985,52.0373586 147.603803,56.84101 C147.61255,58.1836646 146.943046,58.973043 145.482385,59.077336 C144.275798,59.1635086 143.048487,59.1907563 141.847553,59.0712959 C140.459561,58.9333123 139.828277,58.311447 139.825989,57.0780517 C139.815358,51.3878428 139.819395,45.697634 139.844426,40.0074252 C139.852096,38.2753832 139.943741,34.7174759 139.963523,31.2433251 C139.968099,30.4606579 140.485265,29.7718142 141.238877,29.5538325 C147.651845,27.6989745 157.113443,28.4172135 160.606165,29.1880688 C162.724353,29.6555752 164.706891,30.4985094 166.489856,31.7902928 C168.10918,32.9636894 169.372556,34.3864765 170.313495,36.1642893 C171.052034,37.5596945 171.346212,39.0105346 171.363034,40.5385543 C171.392236,43.2135283 171.371243,45.8890391 171.371243,48.5644158" id="Fill-6" fill="#607577"></path>
                <path d="M224.703014,28.6494231 C227.829427,28.5913036 230.860697,29.5005451 233.692394,31.1320524 C236.362468,32.7163124 234.915667,34.2292988 233.590791,35.1946465 C231.966353,36.3782443 230.313117,36.7308539 229.419145,36.0165073 C225.244,32.3027646 218.967489,33.2835481 219.688265,37.5007696 C220.254685,39.9820566 225.155854,41.2771955 227.237977,42.0534199 C229.589246,42.9300446 231.831376,44.0214297 233.69845,45.729848 C236.373503,48.1775788 236.381712,51.9753465 234.889022,54.4750224 C230.337609,61.684392 218.147802,61.0262859 212.362888,56.8450367 C210.564447,55.443323 211.294778,54.5770335 213.048944,52.9864649 C214.67863,51.5087797 215.878757,51.5361617 217.006887,52.2370857 C218.016323,52.86432 218.952417,53.3047129 220.217543,53.7263142 C227.856073,55.9974046 228.596362,51.219256 227.641966,49.8804939 C227.291133,49.3885585 226.778139,49.0120568 226.24119,48.7183721 C224.21209,47.6087324 222.011678,46.8888826 219.898604,45.9698427 C217.644227,44.9893276 215.462521,43.9057276 213.830816,41.9492611 C212.26142,40.0675581 211.732545,37.948008 212.379979,35.6425559 C213.122152,33.0000645 214.960561,31.2023864 217.417202,30.0570428 C219.665119,29.0090124 222.06147,28.6051288 224.703014,28.6494231" id="Fill-7" fill="#607577"></path>
                <path d="M306.169811,44.2806186 C306.169811,48.4418682 306.144646,52.6033862 306.183538,56.7642331 C306.19713,58.2099728 305.520359,58.9839152 303.945849,59.0886109 C302.886351,59.1589449 301.817971,59.132771 300.75484,59.1047179 C299.391476,59.0686113 299.285566,58.325138 298.989908,56.9901342 C298.888709,56.5329631 298.443809,56.3936374 298.066061,56.7508106 C295.757855,58.9341177 292.469415,59.6877922 289.452007,59.8381244 C286.898204,59.9653699 284.220325,59.5967875 281.838373,58.5919777 C280.818575,58.1617859 277.818526,56.4530991 275.817687,53.0817648 C273.120294,47.9943614 273.327941,41.8502029 275.439535,37.6301627 C276.371457,35.6790652 277.689201,34.0251423 279.484278,32.7398018 C281.572994,31.2442646 283.873664,30.2943529 286.361929,29.7480564 C287.673886,29.4600091 289.00778,29.3135694 290.348401,29.3084688 C294.711949,29.2919591 299.075497,29.3010865 303.439179,29.3051132 C303.735779,29.3053817 304.040992,29.3071266 304.327499,29.3720916 C305.695574,29.682286 306.173445,30.2667025 306.17183,31.5421104 C306.166582,35.7883245 306.169811,40.0345387 306.169811,44.2806186 L306.169811,44.2806186 Z M298.80635,36.4053577 C298.805408,35.5633631 298.693442,35.4440369 297.851281,35.4416208 C295.891756,35.4358491 293.932095,35.4440369 291.97257,35.4383994 C290.346114,35.4335673 288.384973,35.5284645 286.850162,36.1205319 C278.999006,38.1918951 277.684895,50.8440966 285.710189,53.6136993 C288.49788,54.5650875 291.738681,54.3613336 294.065996,53.2632373 C296.55305,52.0897064 298.058794,50.9572484 298.54447,47.663362 C298.66895,45.8024639 298.808099,38.2960539 298.80635,36.4053577 L298.80635,36.4053577 Z" id="Fill-8" fill="#607577"></path>
                <path d="M239.905655,36.5806559 C239.905655,29.9143614 239.940644,23.2479327 239.877125,16.5823093 C239.863803,15.1977764 240.801242,14.2365898 241.927488,14.1731013 C243.305118,14.0956533 244.684901,14.0301514 246.062934,14.231355 C247.157824,14.3912172 247.794761,15.4197849 247.799336,16.4764057 C247.816562,20.4251768 247.805931,24.3739479 247.806469,28.322719 C247.806603,29.2298129 247.872006,29.2988046 248.790874,29.2997442 C251.366343,29.3026972 253.941812,29.2982677 256.517281,29.3014891 C260.055758,29.3056501 263.370574,30.1143569 266.346265,32.0831721 C266.853472,32.4187351 267.340494,32.815639 267.746637,33.2652935 C268.493117,34.0918522 269.16114,34.9678059 269.69432,35.9735553 C270.489112,37.4728508 270.673747,39.0462385 270.673343,40.6837859 C270.672132,46.0761491 270.650062,51.4687806 270.688954,56.8608753 C270.698777,58.1989663 269.974099,58.9857944 268.550041,59.0800205 C267.384903,59.1572 266.206308,59.1612267 265.041709,59.0809601 C263.526679,58.9765329 262.900374,58.1752084 262.907641,56.8647678 C262.938055,51.4299895 262.881399,45.9946744 262.936709,40.560433 C262.964835,37.8030447 261.213091,36.1773091 258.703159,35.5963825 C257.806092,35.3887361 256.903372,35.290349 255.986254,35.290349 C253.602283,35.2902148 251.218447,35.2895437 248.834342,35.2906175 C247.88358,35.2910202 247.806469,35.3664547 247.806469,36.2935482 C247.805931,43.1719184 247.804181,49.7953951 247.807949,56.6738996 C247.808622,57.9342742 247.087577,58.9739826 245.853134,59.058276 C244.435132,59.1550524 243.003808,59.2484731 241.592131,58.9929083 C240.504373,58.796 239.906193,58.0121248 239.906059,56.897653 C239.905251,50.1253206 239.905655,43.3529882 239.905655,36.5806559" id="Fill-9" fill="#607577"></path>
                <g id="Fill-10-+-Fill-11-+-Fill-12" fill="#FDCD49">
                    <path d="M0.377500326,23.1484718 C0.375212576,22.2335929 0.945804476,21.1996562 1.73050291,20.7887928 C3.99376107,19.6035843 10.00422,20.0913587 11.4648815,20.5113493 C17.8444757,22.3452682 20.6257075,30.2331462 35.6804518,26.3992719 C41.7018113,24.8658832 46.3561725,25.9559261 47.3559194,26.3521588 C48.5709841,26.8338931 49.4124726,27.6678342 49.4140875,29.1496804 C49.419605,34.1283615 49.3882494,46.0941352 49.3603926,54.4605261 C49.3520491,56.9329542 47.3432695,58.9322385 44.8645591,58.9386814 C41.8600698,58.9464664 38.2615727,58.9196214 35.4605586,58.8969373 C33.0088975,58.877072 30.996619,56.8603384 30.9898903,54.4148895 C30.975491,49.2078914 30.8870761,43.2488295 30.7371612,38.0203553 C30.6020493,33.313883 25.9444584,29.9483204 19.9127368,31.4720448 C19.2270845,31.6451953 18.9424614,31.780897 18.9360019,32.3450455 C18.9191802,33.8011205 18.8078879,46.8023074 18.7494829,54.4054937 C18.7306426,56.8749689 16.7183642,58.866334 14.2424798,58.8667367 L4.81277576,58.8679447 C2.31993511,58.8683474 0.300120528,56.8513453 0.304157735,54.365092 C0.318422533,45.6677018 0.387727917,27.2322735 0.377500326,23.1484718" id="Fill-10"></path>
                    <path d="M49.4574202,14.3575267 C49.4574202,18.9413172 45.7318857,22.6573418 41.1361986,22.6573418 C36.5405115,22.6573418 32.8148424,18.9413172 32.8148424,14.3575267 C32.8148424,9.77373616 36.5405115,6.05784577 41.1361986,6.05784577 C45.7318857,6.05784577 49.4574202,9.77373616 49.4574202,14.3575267" id="Fill-11"></path>
                    <path d="M17.9059758,8.87858831 C17.9059758,13.7115008 13.9779082,17.6294001 9.13231793,17.6294001 C4.28686228,17.6294001 0.358794601,13.7115008 0.358794601,8.87858831 C0.358794601,4.0455416 4.28686228,0.127776512 9.13231793,0.127776512 C13.9779082,0.127776512 17.9059758,4.0455416 17.9059758,8.87858831" id="Fill-12"></path>
                </g>
            </g>
        </g>
    </g>
</svg>